0
SECTION
2
HEADER
9
$ACADVER
1
AC1021
9
$LASTSAVEDBY
1
@tarikjabiri/dxf
9
$HANDSEED
5
57
9
$INSUNITS
70
6
9
$CLAYER
8
0
9
$VIEWCTR
10
128583.55888903108
20
4928847.5
0
ENDSEC
0
SECTION
2
CLASSES
0
ENDSEC
0
SECTION
2
TABLES
0
TABLE
2
VPORT
5
1
330
0
100
AcDbSymbolTable
70
1
0
VPORT
5
19
330
1
100
AcDbSymbolTableRecord
100
AcDbViewportTableRecord
2
*Active
70
0
10
0
20
0
11
1
21
1
12
128583.55888903108
22
4928847.5
13
0
23
0
14
10
24
10
15
10
25
10
16
0
26
0
36
1
17
0
27
0
37
0
40
9857926
41
2
42
50
43
0
44
0
50
0
51
0
71
0
72
100
73
1
74
3
75
0
76
1
77
0
78
0
281
0
65
1
110
0
120
0
130
0
111
1
121
0
131
0
112
0
122
1
132
0
79
0
146
0
348
10020
60
7
61
5
292
1
282
1
141
0
142
0
63
250
421
3358443
0
ENDTAB
0
TABLE
2
LTYPE
5
2
330
0
100
AcDbSymbolTable
70
3
0
LTYPE
5
12
330
2
100
AcDbSymbolTableRecord
100
AcDbLinetypeTableRecord
2
ByBlock
70
0
3

72
65
73
0
40
0
0
LTYPE
5
13
330
2
100
AcDbSymbolTableRecord
100
AcDbLinetypeTableRecord
2
ByLayer
70
0
3

72
65
73
0
40
0
0
LTYPE
5
14
330
2
100
AcDbSymbolTableRecord
100
AcDbLinetypeTableRecord
2
Continuous
70
0
3
Solid line
72
65
73
0
40
0
0
ENDTAB
0
TABLE
2
LAYER
5
3
330
0
100
AcDbSymbolTable
70
22
0
LAYER
5
15
330
3
100
AcDbSymbolTableRecord
100
AcDbLayerTableRecord
2
0
70
0
62
7
6
Continuous
370
0
390
0
0
LAYER
5
1A
330
3
100
AcDbSymbolTableRecord
100
AcDbLayerTableRecord
2
BOUNDARY
70
0
62
7
6
Continuous
370
0
390
0
0
LAYER
5
1B
330
3
100
AcDbSymbolTableRecord
100
AcDbLayerTableRecord
2
BEACON
70
0
62
7
6
Continuous
370
0
390
0
0
LAYER
5
1C
330
3
100
AcDbSymbolTableRecord
100
AcDbLayerTableRecord
2
TEXT-DEEDPLAN
70
0
62
4
6
Continuous
370
0
390
0
0
LAYER
5
1D
330
3
100
AcDbSymbolTableRecord
100
AcDbLayerTableRecord
2
TEXT-COORDS
70
0
62
4
6
Continuous
370
0
390
0
0
LAYER
5
1E
330
3
100
AcDbSymbolTableRecord
100
AcDbLayerTableRecord
2
TEXT-AREA
70
0
62
4
6
Continuous
370
0
390
0
0
LAYER
5
1F
330
3
100
AcDbSymbolTableRecord
100
AcDbLayerTableRecord
2
TEXT-BEARINGS
70
0
62
3
6
Continuous
370
0
390
0
0
LAYER
5
20
330
3
100
AcDbSymbolTableRecord
100
AcDbLayerTableRecord
2
TEXT-DISTANCES
70
0
62
3
6
Continuous
370
0
390
0
0
LAYER
5
21
330
3
100
AcDbSymbolTableRecord
100
AcDbLayerTableRecord
2
TEXT-BEACON-LABELS
70
0
62
2
6
Continuous
370
0
390
0
0
LAYER
5
22
330
3
100
AcDbSymbolTableRecord
100
AcDbLayerTableRecord
2
TITLE-BLOCK
70
0
62
7
6
Continuous
370
0
390
0
0
LAYER
5
23
330
3
100
AcDbSymbolTableRecord
100
AcDbLayerTableRecord
2
COORD-SCHEDULE
70
0
62
7
6
Continuous
370
0
390
0
0
LAYER
5
24
330
3
100
AcDbSymbolTableRecord
100
AcDbLayerTableRecord
2
NORTH-ARROW
70
0
62
7
6
Continuous
370
0
390
0
0
LAYER
5
25
330
3
100
AcDbSymbolTableRecord
100
AcDbLayerTableRecord
2
SCALE-BAR
70
0
62
7
6
Continuous
370
0
390
0
0
LAYER
5
26
330
3
100
AcDbSymbolTableRecord
100
AcDbLayerTableRecord
2
GRID
70
0
62
8
6
Continuous
370
0
390
0
0
LAYER
5
27
330
3
100
AcDbSymbolTableRecord
100
AcDbLayerTableRecord
2
TIN-EDGES
70
0
62
8
6
Continuous
370
0
390
0
0
LAYER
5
28
330
3
100
AcDbSymbolTableRecord
100
AcDbLayerTableRecord
2
CONTOURS
70
0
62
3
6
Continuous
370
0
390
0
0
LAYER
5
29
330
3
100
AcDbSymbolTableRecord
100
AcDbLayerTableRecord
2
SPOT-HEIGHTS
70
0
62
4
6
Continuous
370
0
390
0
0
LAYER
5
2A
330
3
100
AcDbSymbolTableRecord
100
AcDbLayerTableRecord
2
ALIGNMENT
70
0
62
2
6
Continuous
370
0
390
0
0
LAYER
5
2B
330
3
100
AcDbSymbolTableRecord
100
AcDbLayerTableRecord
2
CROSS-SECTIONS
70
0
62
6
6
Continuous
370
0
390
0
0
LAYER
5
2C
330
3
100
AcDbSymbolTableRecord
100
AcDbLayerTableRecord
2
DESIGN-SURFACE
70
0
62
1
6
Continuous
370
0
390
0
0
LAYER
5
2D
330
3
100
AcDbSymbolTableRecord
100
AcDbLayerTableRecord
2
UNIT-BOUNDARY
70
0
62
7
6
Continuous
370
0
390
0
0
LAYER
5
2E
330
3
100
AcDbSymbolTableRecord
100
AcDbLayerTableRecord
2
COMMON-PROPERTY
70
0
62
8
6
Continuous
370
0
390
0
0
ENDTAB
0
TABLE
2
STYLE
5
4
330
0
100
AcDbSymbolTable
70
1
0
STYLE
5
16
330
4
100
AcDbSymbolTableRecord
100
AcDbTextStyleTableRecord
2
Standard
70
0
40
0
41
1
50
0
71
0
42
1
3
txt
4

0
ENDTAB
0
TABLE
2
VIEW
5
5
330
0
100
AcDbSymbolTable
70
0
0
ENDTAB
0
TABLE
2
UCS
5
6
330
0
100
AcDbSymbolTable
70
0
0
ENDTAB
0
TABLE
2
APPID
5
7
330
0
100
AcDbSymbolTable
70
1
0
APPID
5
17
330
7
100
AcDbSymbolTableRecord
100
AcDbRegAppTableRecord
2
ACAD
70
0
0
ENDTAB
0
TABLE
2
DIMSTYLE
5
8
330
0
100
AcDbSymbolTable
70
1
100
AcDbDimStyleTable
0
DIMSTYLE
105
18
330
8
100
AcDbSymbolTableRecord
100
AcDbDimStyleTableRecord
2
Standard
70
0
340
16
0
ENDTAB
0
TABLE
2
BLOCK_RECORD
5
9
330
0
100
AcDbSymbolTable
70
2
0
BLOCK_RECORD
5
C
330
9
100
AcDbSymbolTableRecord
100
AcDbBlockTableRecord
2
*Model_Space
70
0
280
1
281
0
0
BLOCK_RECORD
5
F
330
9
100
AcDbSymbolTableRecord
100
AcDbBlockTableRecord
2
*Paper_Space
70
0
280
1
281
0
0
ENDTAB
0
ENDSEC
0
SECTION
2
BLOCKS
0
BLOCK
5
D
330
C
100
AcDbEntity
8
0
100
AcDbBlockBegin
2
*Model_Space
70
0
10
0
20
0
30
0
3
*Model_Space
1

0
ENDBLK
5
E
100
AcDbEntity
8
0
100
AcDbBlockEnd
0
BLOCK
5
10
330
F
100
AcDbEntity
8
0
100
AcDbBlockBegin
2
*Paper_Space
70
0
10
0
20
0
30
0
3
*Paper_Space
1

0
ENDBLK
5
11
100
AcDbEntity
8
0
100
AcDbBlockEnd
0
ENDSEC
0
SECTION
2
ENTITIES
0
LINE
5
2F
330
C
100
AcDbEntity
8
BOUNDARY
100
AcDbLine
10
257100
20
9857700
30
0
11
257150
21
9857700
31
0
0
LINE
5
30
330
C
100
AcDbEntity
8
BOUNDARY
100
AcDbLine
10
257150
20
9857700
30
0
11
257116.7253201176
21
9857657.003747731
31
0
0
LINE
5
31
330
C
100
AcDbEntity
8
BOUNDARY
100
AcDbLine
10
257116.7253201176
20
9857657.003747731
30
0
11
257162.61777806215
21
9857655.33775225
31
0
0
LINE
5
32
330
C
100
AcDbEntity
8
BOUNDARY
100
AcDbLine
10
257162.61777806215
20
9857655.33775225
30
0
11
257100
21
9857700
31
0
0
CIRCLE
5
33
330
C
100
AcDbEntity
8
BEACON
100
AcDbCircle
10
257100
20
9857700
30
0
40
0.5
0
TEXT
5
34
330
C
100
AcDbEntity
8
TEXT-BEACON-LABELS
100
AcDbText
10
257101
20
9857701
30
0
40
1.5
1
B1 (fixed)
50
0
7
STANDARD
100
AcDbText
0
CIRCLE
5
35
330
C
100
AcDbEntity
8
BEACON
100
AcDbCircle
10
257150
20
9857700
30
0
40
0.5
0
TEXT
5
36
330
C
100
AcDbEntity
8
TEXT-BEACON-LABELS
100
AcDbText
10
257151
20
9857701
30
0
40
1.5
1
B2 (fixed)
50
0
7
STANDARD
100
AcDbText
0
CIRCLE
5
37
330
C
100
AcDbEntity
8
BEACON
100
AcDbCircle
10
257116.7253201176
20
9857657.003747731
30
0
40
0.5
0
TEXT
5
38
330
C
100
AcDbEntity
8
TEXT-BEACON-LABELS
100
AcDbText
10
257117.7253201176
20
9857658.003747731
30
0
40
1.5
1
B3 (±29021mm)
50
0
7
STANDARD
100
AcDbText
0
CIRCLE
5
39
330
C
100
AcDbEntity
8
BEACON
100
AcDbCircle
10
257162.61777806215
20
9857655.33775225
30
0
40
0.5
0
TEXT
5
3A
330
C
100
AcDbEntity
8
TEXT-BEACON-LABELS
100
AcDbText
10
257163.61777806215
20
9857656.33775225
30
0
40
1.5
1
B4 (±38551mm)
50
0
7
STANDARD
100
AcDbText
0
TEXT
5
3B
330
C
100
AcDbEntity
8
TEXT-BEARINGS
100
AcDbText
10
257125
20
9857701
30
0
40
1.5
1
090d00'00"
50
0
7
STANDARD
100
AcDbText
0
TEXT
5
3C
330
C
100
AcDbEntity
8
TEXT-DISTANCES
100
AcDbText
10
257125
20
9857698
30
0
40
1.5
1
50.000m
50
0
7
STANDARD
100
AcDbText
0
TEXT
5
3D
330
C
100
AcDbEntity
8
TEXT-BEARINGS
100
AcDbText
10
257133.3626600588
20
9857679.501873866
30
0
40
1.5
1
217d44'10"
50
0
7
STANDARD
100
AcDbText
0
TEXT
5
3E
330
C
100
AcDbEntity
8
TEXT-DISTANCES
100
AcDbText
10
257133.3626600588
20
9857676.501873866
30
0
40
1.5
1
54.368m
50
0
7
STANDARD
100
AcDbText
0
TEXT
5
3F
330
C
100
AcDbEntity
8
TEXT-BEARINGS
100
AcDbText
10
257139.6715490899
20
9857657.17074999
30
0
40
1.5
1
092d04'45"
50
0
7
STANDARD
100
AcDbText
0
TEXT
5
40
330
C
100
AcDbEntity
8
TEXT-DISTANCES
100
AcDbText
10
257139.6715490899
20
9857654.17074999
30
0
40
1.5
1
45.923m
50
0
7
STANDARD
100
AcDbText
0
TEXT
5
41
330
C
100
AcDbEntity
8
TEXT-BEARINGS
100
AcDbText
10
257131.30888903106
20
9857678.668876125
30
0
40
1.5
1
305d29'54"
50
0
7
STANDARD
100
AcDbText
0
TEXT
5
42
330
C
100
AcDbEntity
8
TEXT-DISTANCES
100
AcDbText
10
257131.30888903106
20
9857675.668876125
30
0
40
1.5
1
76.914m
50
0
7
STANDARD
100
AcDbText
0
TEXT
5
43
330
C
100
AcDbEntity
8
COORD-SCHEDULE
100
AcDbText
10
0
20
-5
30
0
40
2
1
COORDINATES: SRID 21037 | urn:ogc:def:crs:EPSG::21037
50
0
7
STANDARD
100
AcDbText
0
TEXT
5
44
330
C
100
AcDbEntity
8
TEXT-COORDS
100
AcDbText
10
0
20
-8
30
0
40
1.5
1
B1  E=257100.000  N=9857700.000  Concrete pillar
50
0
7
STANDARD
100
AcDbText
0
TEXT
5
45
330
C
100
AcDbEntity
8
TEXT-COORDS
100
AcDbText
10
0
20
-10.5
30
0
40
1.5
1
B2  E=257150.000  N=9857700.000  Concrete pillar
50
0
7
STANDARD
100
AcDbText
0
TEXT
5
46
330
C
100
AcDbEntity
8
TEXT-COORDS
100
AcDbText
10
0
20
-13
30
0
40
1.5
1
B3  E=257116.725  N=9857657.004  Concrete pillar
50
0
7
STANDARD
100
AcDbText
0
TEXT
5
47
330
C
100
AcDbEntity
8
TEXT-COORDS
100
AcDbText
10
0
20
-15.5
30
0
40
1.5
1
B4  E=257162.618  N=9857655.338  Concrete pillar
50
0
7
STANDARD
100
AcDbText
0
LINE
5
48
330
C
100
AcDbEntity
8
NORTH-ARROW
100
AcDbLine
10
257167.61777806215
20
9857705
30
0
11
257167.61777806215
21
9857710
31
0
0
LINE
5
49
330
C
100
AcDbEntity
8
NORTH-ARROW
100
AcDbLine
10
257166.7844447288
20
9857708.333333334
30
0
11
257167.61777806215
21
9857710
31
0
0
LINE
5
4A
330
C
100
AcDbEntity
8
NORTH-ARROW
100
AcDbLine
10
257168.4511113955
20
9857708.333333334
30
0
11
257167.61777806215
21
9857710
31
0
0
TEXT
5
4B
330
C
100
AcDbEntity
8
NORTH-ARROW
100
AcDbText
10
257167.11777806215
20
9857710.5
30
0
40
2
1
N
50
0
7
STANDARD
100
AcDbText
0
LINE
5
4C
330
C
100
AcDbEntity
8
SCALE-BAR
100
AcDbLine
10
257100
20
9857645.33775225
30
0
11
257112.5
21
9857645.33775225
31
0
0
LINE
5
4D
330
C
100
AcDbEntity
8
SCALE-BAR
100
AcDbLine
10
257100
20
9857644.33775225
30
0
11
257100
21
9857646.33775225
31
0
0
LINE
5
4E
330
C
100
AcDbEntity
8
SCALE-BAR
100
AcDbLine
10
257112.5
20
9857645.33775225
30
0
11
257125
21
9857645.33775225
31
0
0
LINE
5
4F
330
C
100
AcDbEntity
8
SCALE-BAR
100
AcDbLine
10
257112.5
20
9857644.33775225
30
0
11
257112.5
21
9857646.33775225
31
0
0
LINE
5
50
330
C
100
AcDbEntity
8
SCALE-BAR
100
AcDbLine
10
257125
20
9857645.33775225
30
0
11
257137.5
21
9857645.33775225
31
0
0
LINE
5
51
330
C
100
AcDbEntity
8
SCALE-BAR
100
AcDbLine
10
257125
20
9857644.33775225
30
0
11
257125
21
9857646.33775225
31
0
0
LINE
5
52
330
C
100
AcDbEntity
8
SCALE-BAR
100
AcDbLine
10
257137.5
20
9857645.33775225
30
0
11
257150
21
9857645.33775225
31
0
0
LINE
5
53
330
C
100
AcDbEntity
8
SCALE-BAR
100
AcDbLine
10
257137.5
20
9857644.33775225
30
0
11
257137.5
21
9857646.33775225
31
0
0
LINE
5
54
330
C
100
AcDbEntity
8
SCALE-BAR
100
AcDbLine
10
257150
20
9857644.33775225
30
0
11
257150
21
9857646.33775225
31
0
0
TEXT
5
55
330
C
100
AcDbEntity
8
SCALE-BAR
100
AcDbText
10
257100
20
9857642.33775225
30
0
40
1.5
1
0
50
0
7
STANDARD
100
AcDbText
0
TEXT
5
56
330
C
100
AcDbEntity
8
SCALE-BAR
100
AcDbText
10
257147
20
9857642.33775225
30
0
40
1.5
1
50m
50
0
7
STANDARD
100
AcDbText
0
ENDSEC
0
SECTION
2
OBJECTS
0
DICTIONARY
5
A
330
0
100
AcDbDictionary
281
1
3
ACAD_GROUP
350
B
0
DICTIONARY
5
B
330
A
100
AcDbDictionary
281
0
0
ENDSEC
0
EOF